REM DIRINDEX 1\2,1\3,1\4,1\5
REM DIRNAME "folder01","folder02","folder03","folder04","folder05"
TITLE ""
FILE "DISC1Track07.mp3" MP3
  TRACK 01 AUDIO
    TITLE "2:cjc158_0260"
    INDEX 01 00:00:00
  TRACK 02 AUDIO
    TITLE "0:"
    INDEX 01 00:02:15
  TRACK 03 AUDIO
    TITLE "3:cjc158_0261"
    INDEX 01 00:02:43
  TRACK 04 AUDIO
    TITLE "4:cjc158_0262"
    INDEX 01 00:04:57
  TRACK 05 AUDIO
    TITLE "5:cjc158_0263"
    INDEX 01 00:07:01
  TRACK 06 AUDIO
    TITLE "0:"
    INDEX 01 00:09:01
  TRACK 07 AUDIO
    TITLE "3:cjc158_0264"
    INDEX 01 00:09:31
  TRACK 08 AUDIO
    TITLE "4:cjc158_0265"
    INDEX 01 00:11:26
  TRACK 09 AUDIO
    TITLE "5:cjc158_0266"
    INDEX 01 00:13:60
  TRACK 10 AUDIO
    TITLE "0:"
    INDEX 01 00:16:09
  TRACK 11 AUDIO
    TITLE "3:cjc158_0267"
    INDEX 01 00:16:39
  TRACK 12 AUDIO
    TITLE "4:cjc158_0268"
    INDEX 01 00:18:55
  TRACK 13 AUDIO
    TITLE "5:cjc158_0269"
    INDEX 01 00:21:12
  TRACK 14 AUDIO
    TITLE "0:"
    INDEX 01 00:23:27
  TRACK 15 AUDIO
    TITLE "3:cjc158_0270"
    INDEX 01 00:23:58
  TRACK 16 AUDIO
    TITLE "4:cjc158_0271"
    INDEX 01 00:25:22
  TRACK 17 AUDIO
    TITLE "5:cjc158_0272"
    INDEX 01 00:27:07
  TRACK 18 AUDIO
    TITLE "0:"
    INDEX 01 00:28:48
  TRACK 19 AUDIO
    TITLE "3:cjc158_0273"
    INDEX 01 00:29:04
  TRACK 20 AUDIO
    TITLE "4:cjc158_0274"
    INDEX 01 00:31:25
  TRACK 21 AUDIO
    TITLE "5:cjc158_0275"
    INDEX 01 00:33:69
  TRACK 22 AUDIO
    TITLE "0:"
    INDEX 01 00:36:16
  TRACK 23 AUDIO
    TITLE "3:cjc158_0276"
    INDEX 01 00:36:49
  TRACK 24 AUDIO
    TITLE "4:cjc158_0277"
    INDEX 01 00:38:03
  TRACK 25 AUDIO
    TITLE "5:cjc158_0278"
    INDEX 01 00:39:69
  TRACK 26 AUDIO
    TITLE "0:"
    INDEX 01 00:41:43
  TRACK 27 AUDIO
    TITLE "3:cjc158_0279"
    INDEX 01 00:41:74
  TRACK 28 AUDIO
    TITLE "4:cjc158_0280"
    INDEX 01 00:44:41
  TRACK 29 AUDIO
    TITLE "5:cjc158_0281"
    INDEX 01 00:46:67
  TRACK 30 AUDIO
    TITLE "0:"
    INDEX 01 00:48:74
  TRACK 31 AUDIO
    TITLE "3:cjc158_0282"
    INDEX 01 00:49:24
  TRACK 32 AUDIO
    TITLE "4:cjc158_0283"
    INDEX 01 00:50:61
  TRACK 33 AUDIO
    TITLE "5:cjc158_0284"
    INDEX 01 00:52:58
  TRACK 34 AUDIO
    TITLE "0:"
    INDEX 01 00:54:33
  TRACK 35 AUDIO
    TITLE "3:cjc158_0285"
    INDEX 01 00:54:65
  TRACK 36 AUDIO
    TITLE "4:cjc158_0286"
    INDEX 01 00:57:02
  TRACK 37 AUDIO
    TITLE "5:cjc158_0287"
    INDEX 01 00:59:23
  TRACK 38 AUDIO
    TITLE "0:"
    INDEX 01 01:01:26
  TRACK 39 AUDIO
    TITLE "3:cjc158_0288"
    INDEX 01 01:01:47
  TRACK 40 AUDIO
    TITLE "4:cjc158_0289"
    INDEX 01 01:03:11
  TRACK 41 AUDIO
    TITLE "5:cjc158_0290"
    INDEX 01 01:05:08
  TRACK 42 AUDIO
    TITLE "0:"
    INDEX 01 01:06:62
  TRACK 43 AUDIO
    TITLE "3:cjc158_0291"
    INDEX 01 01:07:18
  TRACK 44 AUDIO
    TITLE "4:cjc158_0292"
    INDEX 01 01:10:05
  TRACK 45 AUDIO
    TITLE "5:cjc158_0293"
    INDEX 01 01:12:39
  TRACK 46 AUDIO
    TITLE "0:"
    INDEX 01 01:14:56
  TRACK 47 AUDIO
    TITLE "3:cjc158_0294"
    INDEX 01 01:15:10
  TRACK 48 AUDIO
    TITLE "4:cjc158_0295"
    INDEX 01 01:16:64
  TRACK 49 AUDIO
    TITLE "5:cjc158_0296"
    INDEX 01 01:18:46
  TRACK 50 AUDIO
    TITLE "0:"
    INDEX 01 01:20:15
  TRACK 51 AUDIO
    TITLE "3:cjc158_0297"
    INDEX 01 01:20:49
  TRACK 52 AUDIO
    TITLE "4:cjc158_0298"
    INDEX 01 01:22:59
  TRACK 53 AUDIO
    TITLE "5:cjc158_0299"
    INDEX 01 01:25:09
  TRACK 54 AUDIO
    TITLE "0:"
    INDEX 01 01:27:07
  TRACK 55 AUDIO
    TITLE "3:cjc158_0300"
    INDEX 01 01:27:39
  TRACK 56 AUDIO
    TITLE "4:cjc158_0301"
    INDEX 01 01:29:18
  TRACK 57 AUDIO
    TITLE "5:cjc158_0302"
    INDEX 01 01:31:07
  TRACK 58 AUDIO
    TITLE "0:"
    INDEX 01 01:32:54
  TRACK 59 AUDIO
    TITLE "3:cjc158_0303"
    INDEX 01 01:33:08
  TRACK 60 AUDIO
    TITLE "4:cjc158_0304"
    INDEX 01 01:35:40
  TRACK 61 AUDIO
    TITLE "5:cjc158_0305"
    INDEX 01 01:38:03
  TRACK 62 AUDIO
    TITLE "0:"
    INDEX 01 01:40:20
  TRACK 63 AUDIO
    TITLE "3:cjc158_0306"
    INDEX 01 01:40:51
  TRACK 64 AUDIO
    TITLE "4:cjc158_0307"
    INDEX 01 01:42:42
  TRACK 65 AUDIO
    TITLE "5:cjc158_0308"
    INDEX 01 01:44:55
  TRACK 66 AUDIO
    TITLE "0:"
    INDEX 01 01:46:60
  TRACK 67 AUDIO
    TITLE "3:cjc158_0309"
    INDEX 01 01:47:16
  TRACK 68 AUDIO
    TITLE "4:cjc158_0310"
    INDEX 01 01:49:60
  TRACK 69 AUDIO
    TITLE "5:cjc158_0311"
    INDEX 01 01:52:01
  TRACK 70 AUDIO
    TITLE "0:"
    INDEX 01 01:53:73
  TRACK 71 AUDIO
    TITLE "3:cjc158_0312"
    INDEX 01 01:54:22
  TRACK 72 AUDIO
    TITLE "4:cjc158_0313"
    INDEX 01 01:55:72
  TRACK 73 AUDIO
    TITLE "5:cjc158_0314"
    INDEX 01 01:57:61
  TRACK 74 AUDIO
    TITLE "0:"
    INDEX 01 01:59:43
  TRACK 75 AUDIO
    TITLE "3:cjc158_0315"
    INDEX 01 01:59:74
  TRACK 76 AUDIO
    TITLE "4:cjc158_0316"
    INDEX 01 02:02:41
  TRACK 77 AUDIO
    TITLE "5:cjc158_0317"
    INDEX 01 02:04:71
  TRACK 78 AUDIO
    TITLE "0:"
    INDEX 01 02:07:03
  TRACK 79 AUDIO
    TITLE "3:cjc158_0318"
    INDEX 01 02:07:30
  TRACK 80 AUDIO
    TITLE "4:cjc158_0319"
    INDEX 01 02:09:27
  TRACK 81 AUDIO
    TITLE "5:cjc158_0320"
    INDEX 01 02:11:42
  TRACK 82 AUDIO
    TITLE "0:"
    INDEX 01 02:13:37
